<svg width="340" height="198" viewBox="0 0 340 198" fill="none" xmlns="http://www.w3.org/2000/svg">
<g opacity="0.9">
<rect width="340" height="197.16" fill="#FFC4E7"/>
<path d="M144.776 93.16C140.829 93.16 137.016 92.6 133.336 91.48C129.709 90.36 126.776 88.8133 124.536 86.84L128.456 77.56C130.856 79.32 133.389 80.6533 136.056 81.56C138.722 82.4133 141.469 82.84 144.296 82.84C147.602 82.84 150.082 82.2267 151.736 81C153.389 79.7733 154.216 77.96 154.216 75.56C154.216 73.32 153.416 71.64 151.816 70.52C150.269 69.3467 147.949 68.76 144.856 68.76H135.416V58.92H143.736C146.402 58.92 148.536 58.3067 150.136 57.08C151.736 55.8 152.536 54.0667 152.536 51.88C152.536 49.7467 151.789 48.12 150.296 47C148.802 45.88 146.642 45.32 143.816 45.32C138.429 45.32 133.629 47.1067 129.416 50.68L125.416 41.56C127.816 39.48 130.722 37.88 134.136 36.76C137.602 35.5867 141.229 35 145.016 35C151.096 35 155.842 36.36 159.256 39.08C162.722 41.7467 164.456 45.48 164.456 50.28C164.456 53.5867 163.522 56.44 161.656 58.84C159.789 61.1867 157.229 62.76 153.976 63.56V62.52C157.816 63.16 160.802 64.7333 162.936 67.24C165.069 69.7467 166.136 72.8933 166.136 76.68C166.136 81.8 164.216 85.8267 160.376 88.76C156.589 91.6933 151.389 93.16 144.776 93.16Z" fill="#DD2590"/>
<path d="M193.944 93.16C191.438 93.16 188.958 92.8933 186.504 92.36C184.051 91.8267 181.758 91.1067 179.624 90.2C177.491 89.24 175.704 88.12 174.264 86.84L178.184 77.56C180.584 79.2667 183.091 80.5733 185.704 81.48C188.318 82.3867 190.984 82.84 193.704 82.84C196.798 82.84 199.198 82.12 200.904 80.68C202.664 79.1867 203.544 77.16 203.544 74.6C203.544 72.04 202.718 69.9867 201.064 68.44C199.411 66.8933 197.144 66.12 194.264 66.12C192.238 66.12 190.344 66.4933 188.584 67.24C186.878 67.9867 185.331 69.1333 183.944 70.68H175.944V35.88H211.944V46.04H187.704V61.32H184.824C186.158 59.6667 187.918 58.3867 190.104 57.48C192.291 56.5733 194.744 56.12 197.464 56.12C201.091 56.12 204.238 56.8933 206.904 58.44C209.624 59.9333 211.731 62.04 213.224 64.76C214.718 67.4267 215.464 70.5733 215.464 74.2C215.464 77.9333 214.584 81.24 212.824 84.12C211.118 86.9467 208.638 89.16 205.384 90.76C202.184 92.36 198.371 93.16 193.944 93.16Z" fill="#DD2590"/>
<path d="M130.924 132.16V125.46L131.564 127.24L125.384 118.06H128.984L132.864 124.1H132.224L136.104 118.06H139.584L133.424 127.24L134.044 125.46V132.16H130.924ZM143.537 132.38C141.777 132.38 140.404 131.907 139.417 130.96C138.431 130.013 137.937 128.727 137.937 127.1C137.937 126.047 138.144 125.127 138.557 124.34C138.984 123.553 139.571 122.94 140.317 122.5C141.077 122.047 141.964 121.82 142.977 121.82C143.977 121.82 144.811 122.033 145.477 122.46C146.157 122.887 146.664 123.487 146.997 124.26C147.344 125.02 147.517 125.907 147.517 126.92V127.62H140.417V126.12H145.317L144.977 126.4C144.977 125.56 144.804 124.927 144.457 124.5C144.124 124.06 143.637 123.84 142.997 123.84C142.291 123.84 141.744 124.1 141.357 124.62C140.984 125.14 140.797 125.887 140.797 126.86V127.18C140.797 128.167 141.037 128.9 141.517 129.38C142.011 129.86 142.717 130.1 143.637 130.1C144.184 130.1 144.697 130.033 145.177 129.9C145.671 129.753 146.137 129.527 146.577 129.22L147.417 131.22C146.911 131.593 146.324 131.88 145.657 132.08C145.004 132.28 144.297 132.38 143.537 132.38ZM153.373 132.38C152.493 132.38 151.72 132.167 151.053 131.74C150.387 131.313 149.867 130.707 149.493 129.92C149.12 129.133 148.933 128.187 148.933 127.08C148.933 125.987 149.12 125.047 149.493 124.26C149.867 123.473 150.387 122.873 151.053 122.46C151.72 122.033 152.493 121.82 153.373 121.82C154.187 121.82 154.913 122.02 155.553 122.42C156.207 122.807 156.633 123.333 156.833 124H156.613L156.853 122.02H159.753C159.713 122.46 159.673 122.907 159.633 123.36C159.607 123.8 159.593 124.233 159.593 124.66V132.16H156.593L156.573 130.26H156.813C156.6 130.9 156.173 131.413 155.533 131.8C154.893 132.187 154.173 132.38 153.373 132.38ZM154.293 130.1C154.987 130.1 155.547 129.853 155.973 129.36C156.4 128.867 156.613 128.107 156.613 127.08C156.613 126.053 156.4 125.3 155.973 124.82C155.547 124.34 154.987 124.1 154.293 124.1C153.6 124.1 153.04 124.34 152.613 124.82C152.187 125.3 151.973 126.053 151.973 127.08C151.973 128.107 152.18 128.867 152.593 129.36C153.02 129.853 153.587 130.1 154.293 130.1ZM162.05 132.16V124.7C162.05 124.26 162.037 123.813 162.01 123.36C161.997 122.907 161.963 122.46 161.91 122.02H164.81L165.15 124.98H164.69C164.823 124.26 165.037 123.667 165.33 123.2C165.637 122.733 166.01 122.387 166.45 122.16C166.903 121.933 167.417 121.82 167.99 121.82C168.243 121.82 168.443 121.833 168.59 121.86C168.737 121.873 168.883 121.907 169.03 121.96L169.01 124.62C168.73 124.5 168.49 124.427 168.29 124.4C168.103 124.36 167.863 124.34 167.57 124.34C167.01 124.34 166.543 124.447 166.17 124.66C165.81 124.873 165.537 125.187 165.35 125.6C165.177 126.013 165.09 126.513 165.09 127.1V132.16H162.05ZM173.935 132.38C173.028 132.38 172.202 132.28 171.455 132.08C170.708 131.88 170.075 131.6 169.555 131.24L170.335 129.24C170.855 129.56 171.428 129.813 172.055 130C172.695 130.187 173.328 130.28 173.955 130.28C174.542 130.28 174.975 130.187 175.255 130C175.535 129.813 175.675 129.56 175.675 129.24C175.675 128.973 175.582 128.767 175.395 128.62C175.222 128.473 174.948 128.367 174.575 128.3L172.515 127.92C171.648 127.747 170.988 127.427 170.535 126.96C170.082 126.493 169.855 125.887 169.855 125.14C169.855 124.487 170.028 123.913 170.375 123.42C170.735 122.913 171.248 122.52 171.915 122.24C172.582 121.96 173.362 121.82 174.255 121.82C175.015 121.82 175.735 121.913 176.415 122.1C177.095 122.287 177.675 122.573 178.155 122.96L177.335 124.9C176.922 124.593 176.442 124.347 175.895 124.16C175.362 123.973 174.848 123.88 174.355 123.88C173.715 123.88 173.255 123.987 172.975 124.2C172.695 124.4 172.555 124.66 172.555 124.98C172.555 125.22 172.635 125.42 172.795 125.58C172.968 125.74 173.228 125.86 173.575 125.94L175.655 126.32C176.548 126.48 177.228 126.78 177.695 127.22C178.162 127.66 178.395 128.267 178.395 129.04C178.395 129.747 178.208 130.347 177.835 130.84C177.462 131.333 176.935 131.713 176.255 131.98C175.588 132.247 174.815 132.38 173.935 132.38ZM185.698 125.1C185.698 123.633 185.971 122.36 186.518 121.28C187.078 120.187 187.878 119.34 188.918 118.74C189.958 118.14 191.191 117.84 192.618 117.84C194.044 117.84 195.278 118.14 196.318 118.74C197.358 119.34 198.158 120.187 198.718 121.28C199.291 122.36 199.578 123.627 199.578 125.08C199.578 126.56 199.291 127.847 198.718 128.94C198.158 130.02 197.358 130.867 196.318 131.48C195.278 132.08 194.044 132.38 192.618 132.38C191.191 132.38 189.958 132.08 188.918 131.48C187.891 130.867 187.098 130.013 186.538 128.92C185.978 127.827 185.698 126.553 185.698 125.1ZM188.958 125.1C188.958 126.553 189.258 127.693 189.858 128.52C190.471 129.333 191.391 129.74 192.618 129.74C193.818 129.74 194.731 129.333 195.358 128.52C195.984 127.693 196.298 126.553 196.298 125.1C196.298 123.633 195.984 122.5 195.358 121.7C194.744 120.887 193.831 120.48 192.618 120.48C191.391 120.48 190.471 120.887 189.858 121.7C189.258 122.5 188.958 123.633 188.958 125.1ZM202.576 132.16V124.28H200.656V122.02H203.436L202.576 122.8V121.34C202.576 120.02 202.916 119.027 203.596 118.36C204.29 117.693 205.323 117.36 206.696 117.36C207.003 117.36 207.33 117.38 207.676 117.42C208.036 117.46 208.35 117.54 208.616 117.66V119.98C208.43 119.913 208.216 119.867 207.976 119.84C207.736 119.8 207.503 119.78 207.276 119.78C206.97 119.78 206.683 119.833 206.416 119.94C206.163 120.047 205.956 120.227 205.796 120.48C205.65 120.72 205.576 121.047 205.576 121.46V122.52L205.156 122.02H208.136V124.28H205.596V132.16H202.576ZM118.276 157.16V143.06H128.076V145.48H121.256V148.78H127.596V151.22H121.256V154.74H128.076V157.16H118.276ZM128.369 157.16L133.169 151.26V152.6L128.629 147.02H132.189L134.889 150.56H133.809L136.529 147.02H140.069L135.549 152.62V151.24L140.349 157.16H136.769L133.809 153.36H134.889L131.909 157.16H128.369ZM141.181 161.48V149.66C141.181 149.233 141.168 148.8 141.141 148.36C141.115 147.907 141.075 147.46 141.021 147.02H143.921L144.161 149H143.941C144.141 148.333 144.561 147.807 145.201 147.42C145.841 147.02 146.575 146.82 147.401 146.82C148.281 146.82 149.055 147.033 149.721 147.46C150.388 147.873 150.908 148.473 151.281 149.26C151.668 150.047 151.861 150.987 151.861 152.08C151.861 153.187 151.668 154.133 151.281 154.92C150.908 155.707 150.388 156.313 149.721 156.74C149.055 157.167 148.281 157.38 147.401 157.38C146.588 157.38 145.861 157.187 145.221 156.8C144.595 156.413 144.175 155.9 143.961 155.26H144.201V161.48H141.181ZM146.481 155.1C147.188 155.1 147.755 154.853 148.181 154.36C148.608 153.867 148.821 153.107 148.821 152.08C148.821 151.053 148.608 150.3 148.181 149.82C147.755 149.34 147.188 149.1 146.481 149.1C145.788 149.1 145.221 149.34 144.781 149.82C144.355 150.3 144.141 151.053 144.141 152.08C144.141 153.107 144.355 153.867 144.781 154.36C145.221 154.853 145.788 155.1 146.481 155.1ZM158.918 157.38C157.158 157.38 155.785 156.907 154.798 155.96C153.811 155.013 153.318 153.727 153.318 152.1C153.318 151.047 153.525 150.127 153.938 149.34C154.365 148.553 154.951 147.94 155.698 147.5C156.458 147.047 157.345 146.82 158.358 146.82C159.358 146.82 160.191 147.033 160.858 147.46C161.538 147.887 162.045 148.487 162.378 149.26C162.725 150.02 162.898 150.907 162.898 151.92V152.62H155.798V151.12H160.698L160.358 151.4C160.358 150.56 160.185 149.927 159.838 149.5C159.505 149.06 159.018 148.84 158.378 148.84C157.671 148.84 157.125 149.1 156.738 149.62C156.365 150.14 156.178 150.887 156.178 151.86V152.18C156.178 153.167 156.418 153.9 156.898 154.38C157.391 154.86 158.098 155.1 159.018 155.1C159.565 155.1 160.078 155.033 160.558 154.9C161.051 154.753 161.518 154.527 161.958 154.22L162.798 156.22C162.291 156.593 161.705 156.88 161.038 157.08C160.385 157.28 159.678 157.38 158.918 157.38ZM164.794 157.16V149.7C164.794 149.26 164.781 148.813 164.754 148.36C164.741 147.907 164.708 147.46 164.654 147.02H167.554L167.894 149.98H167.434C167.568 149.26 167.781 148.667 168.074 148.2C168.381 147.733 168.754 147.387 169.194 147.16C169.648 146.933 170.161 146.82 170.734 146.82C170.988 146.82 171.188 146.833 171.334 146.86C171.481 146.873 171.628 146.907 171.774 146.96L171.754 149.62C171.474 149.5 171.234 149.427 171.034 149.4C170.848 149.36 170.608 149.34 170.314 149.34C169.754 149.34 169.288 149.447 168.914 149.66C168.554 149.873 168.281 150.187 168.094 150.6C167.921 151.013 167.834 151.513 167.834 152.1V157.16H164.794ZM173.037 157.16V147.02H176.057V157.16H173.037ZM172.917 145.36V142.54H176.157V145.36H172.917ZM182.465 157.38C181.585 157.38 180.812 157.167 180.145 156.74C179.478 156.313 178.958 155.707 178.585 154.92C178.212 154.133 178.025 153.187 178.025 152.08C178.025 150.987 178.212 150.047 178.585 149.26C178.958 148.473 179.478 147.873 180.145 147.46C180.812 147.033 181.585 146.82 182.465 146.82C183.278 146.82 184.005 147.02 184.645 147.42C185.298 147.807 185.725 148.333 185.925 149H185.705L185.945 147.02H188.845C188.805 147.46 188.765 147.907 188.725 148.36C188.698 148.8 188.685 149.233 188.685 149.66V157.16H185.685L185.665 155.26H185.905C185.692 155.9 185.265 156.413 184.625 156.8C183.985 157.187 183.265 157.38 182.465 157.38ZM183.385 155.1C184.078 155.1 184.638 154.853 185.065 154.36C185.492 153.867 185.705 153.107 185.705 152.08C185.705 151.053 185.492 150.3 185.065 149.82C184.638 149.34 184.078 149.1 183.385 149.1C182.692 149.1 182.132 149.34 181.705 149.82C181.278 150.3 181.065 151.053 181.065 152.08C181.065 153.107 181.272 153.867 181.685 154.36C182.112 154.853 182.678 155.1 183.385 155.1ZM191.162 157.16V149.66C191.162 149.233 191.149 148.8 191.122 148.36C191.095 147.907 191.055 147.46 191.002 147.02H193.902L194.122 148.9H193.882C194.215 148.233 194.689 147.72 195.302 147.36C195.915 147 196.629 146.82 197.442 146.82C198.629 146.82 199.515 147.167 200.102 147.86C200.702 148.54 201.002 149.6 201.002 151.04V157.16H197.982V151.18C197.982 150.447 197.849 149.927 197.582 149.62C197.315 149.313 196.915 149.16 196.382 149.16C195.715 149.16 195.182 149.373 194.782 149.8C194.382 150.213 194.182 150.773 194.182 151.48V157.16H191.162ZM208.308 157.38C207.228 157.38 206.281 157.167 205.468 156.74C204.654 156.313 204.028 155.7 203.588 154.9C203.148 154.1 202.928 153.153 202.928 152.06C202.928 150.953 203.148 150.013 203.588 149.24C204.041 148.453 204.668 147.853 205.468 147.44C206.281 147.027 207.228 146.82 208.308 146.82C208.988 146.82 209.648 146.92 210.288 147.12C210.941 147.32 211.474 147.6 211.888 147.96L211.008 150.04C210.674 149.733 210.288 149.507 209.848 149.36C209.421 149.2 209.008 149.12 208.608 149.12C207.794 149.12 207.161 149.373 206.708 149.88C206.254 150.387 206.028 151.12 206.028 152.08C206.028 153.04 206.254 153.773 206.708 154.28C207.161 154.787 207.794 155.04 208.608 155.04C208.994 155.04 209.401 154.967 209.828 154.82C210.268 154.673 210.661 154.453 211.008 154.16L211.888 156.22C211.461 156.58 210.921 156.867 210.268 157.08C209.628 157.28 208.974 157.38 208.308 157.38ZM218.508 157.38C216.748 157.38 215.375 156.907 214.388 155.96C213.401 155.013 212.908 153.727 212.908 152.1C212.908 151.047 213.115 150.127 213.528 149.34C213.955 148.553 214.541 147.94 215.288 147.5C216.048 147.047 216.935 146.82 217.948 146.82C218.948 146.82 219.781 147.033 220.448 147.46C221.128 147.887 221.635 148.487 221.968 149.26C222.315 150.02 222.488 150.907 222.488 151.92V152.62H215.388V151.12H220.288L219.948 151.4C219.948 150.56 219.775 149.927 219.428 149.5C219.095 149.06 218.608 148.84 217.968 148.84C217.261 148.84 216.715 149.1 216.328 149.62C215.955 150.14 215.768 150.887 215.768 151.86V152.18C215.768 153.167 216.008 153.9 216.488 154.38C216.981 154.86 217.688 155.1 218.608 155.1C219.155 155.1 219.668 155.033 220.148 154.9C220.641 154.753 221.108 154.527 221.548 154.22L222.388 156.22C221.881 156.593 221.295 156.88 220.628 157.08C219.975 157.28 219.268 157.38 218.508 157.38Z" fill="#DD2590"/>
</g>
</svg>
