<svg width="175" height="198" viewBox="0 0 175 198" fill="none" xmlns="http://www.w3.org/2000/svg">
<g opacity="0.9">
<rect width="175" height="197.16" transform="translate(0 0.420044)" fill="#FFC4E7"/>
<path d="M62.2756 93.58C58.329 93.58 54.5156 93.02 50.8356 91.9C47.209 90.78 44.2756 89.2334 42.0356 87.26L45.9556 77.98C48.3556 79.74 50.889 81.0734 53.5556 81.98C56.2223 82.8334 58.969 83.26 61.7956 83.26C65.1023 83.26 67.5823 82.6467 69.2356 81.42C70.889 80.1934 71.7156 78.38 71.7156 75.98C71.7156 73.74 70.9156 72.06 69.3156 70.94C67.769 69.7667 65.449 69.18 62.3556 69.18H52.9156V59.34H61.2356C63.9023 59.34 66.0356 58.7267 67.6356 57.5C69.2356 56.22 70.0356 54.4867 70.0356 52.3C70.0356 50.1667 69.289 48.54 67.7956 47.42C66.3023 46.3 64.1423 45.74 61.3156 45.74C55.929 45.74 51.129 47.5267 46.9156 51.1L42.9156 41.98C45.3156 39.9 48.2223 38.3 51.6356 37.18C55.1023 36.0067 58.729 35.42 62.5156 35.42C68.5956 35.42 73.3423 36.78 76.7556 39.5C80.2223 42.1667 81.9556 45.9 81.9556 50.7C81.9556 54.0067 81.0223 56.86 79.1556 59.26C77.289 61.6067 74.729 63.18 71.4756 63.98V62.94C75.3156 63.58 78.3023 65.1534 80.4356 67.66C82.569 70.1667 83.6356 73.3134 83.6356 77.1C83.6356 82.22 81.7156 86.2467 77.8756 89.18C74.089 92.1134 68.889 93.58 62.2756 93.58Z" fill="#DD2590"/>
<path d="M111.444 93.58C108.938 93.58 106.458 93.3134 104.004 92.78C101.551 92.2467 99.2577 91.5267 97.1244 90.62C94.9911 89.66 93.2044 88.54 91.7644 87.26L95.6844 77.98C98.0844 79.6867 100.591 80.9934 103.204 81.9C105.818 82.8067 108.484 83.26 111.204 83.26C114.298 83.26 116.698 82.54 118.404 81.1C120.164 79.6067 121.044 77.58 121.044 75.02C121.044 72.46 120.218 70.4067 118.564 68.86C116.911 67.3134 114.644 66.54 111.764 66.54C109.738 66.54 107.844 66.9134 106.084 67.66C104.378 68.4067 102.831 69.5534 101.444 71.1H93.4444V36.3H129.444V46.46H105.204V61.74H102.324C103.658 60.0867 105.418 58.8067 107.604 57.9C109.791 56.9934 112.244 56.54 114.964 56.54C118.591 56.54 121.738 57.3134 124.404 58.86C127.124 60.3534 129.231 62.46 130.724 65.18C132.218 67.8467 132.964 70.9934 132.964 74.62C132.964 78.3534 132.084 81.66 130.324 84.54C128.618 87.3667 126.138 89.58 122.884 91.18C119.684 92.78 115.871 93.58 111.444 93.58Z" fill="#DD2590"/>
<path d="M48.4245 132.58V125.88L49.0645 127.66L42.8845 118.48H46.4845L50.3645 124.52H49.7245L53.6045 118.48H57.0845L50.9245 127.66L51.5445 125.88V132.58H48.4245ZM61.0373 132.8C59.2773 132.8 57.9039 132.327 56.9173 131.38C55.9306 130.433 55.4373 129.147 55.4373 127.52C55.4373 126.467 55.6439 125.547 56.0573 124.76C56.4839 123.973 57.0706 123.36 57.8173 122.92C58.5773 122.467 59.4639 122.24 60.4773 122.24C61.4773 122.24 62.3106 122.453 62.9773 122.88C63.6573 123.307 64.1639 123.907 64.4973 124.68C64.8439 125.44 65.0173 126.327 65.0173 127.34V128.04H57.9173V126.54H62.8173L62.4773 126.82C62.4773 125.98 62.3039 125.347 61.9573 124.92C61.6239 124.48 61.1373 124.26 60.4973 124.26C59.7906 124.26 59.2439 124.52 58.8573 125.04C58.4839 125.56 58.2973 126.307 58.2973 127.28V127.6C58.2973 128.587 58.5373 129.32 59.0173 129.8C59.5106 130.28 60.2173 130.52 61.1373 130.52C61.6839 130.52 62.1973 130.453 62.6773 130.32C63.1706 130.173 63.6373 129.947 64.0773 129.64L64.9173 131.64C64.4106 132.013 63.8239 132.3 63.1573 132.5C62.5039 132.7 61.7973 132.8 61.0373 132.8ZM70.8734 132.8C69.9934 132.8 69.22 132.587 68.5534 132.16C67.8867 131.733 67.3667 131.127 66.9934 130.34C66.62 129.553 66.4334 128.607 66.4334 127.5C66.4334 126.407 66.62 125.467 66.9934 124.68C67.3667 123.893 67.8867 123.293 68.5534 122.88C69.22 122.453 69.9934 122.24 70.8734 122.24C71.6867 122.24 72.4134 122.44 73.0534 122.84C73.7067 123.227 74.1334 123.753 74.3334 124.42H74.1134L74.3534 122.44H77.2534C77.2134 122.88 77.1734 123.327 77.1334 123.78C77.1067 124.22 77.0934 124.653 77.0934 125.08V132.58H74.0934L74.0734 130.68H74.3134C74.1 131.32 73.6734 131.833 73.0334 132.22C72.3934 132.607 71.6734 132.8 70.8734 132.8ZM71.7934 130.52C72.4867 130.52 73.0467 130.273 73.4734 129.78C73.9 129.287 74.1134 128.527 74.1134 127.5C74.1134 126.473 73.9 125.72 73.4734 125.24C73.0467 124.76 72.4867 124.52 71.7934 124.52C71.1 124.52 70.54 124.76 70.1134 125.24C69.6867 125.72 69.4734 126.473 69.4734 127.5C69.4734 128.527 69.68 129.287 70.0934 129.78C70.52 130.273 71.0867 130.52 71.7934 130.52ZM79.5501 132.58V125.12C79.5501 124.68 79.5367 124.233 79.5101 123.78C79.4967 123.327 79.4634 122.88 79.4101 122.44H82.3101L82.6501 125.4H82.1901C82.3234 124.68 82.5367 124.087 82.8301 123.62C83.1367 123.153 83.5101 122.807 83.9501 122.58C84.4034 122.353 84.9167 122.24 85.4901 122.24C85.7434 122.24 85.9434 122.253 86.0901 122.28C86.2367 122.293 86.3834 122.327 86.5301 122.38L86.5101 125.04C86.2301 124.92 85.9901 124.847 85.7901 124.82C85.6034 124.78 85.3634 124.76 85.0701 124.76C84.5101 124.76 84.0434 124.867 83.6701 125.08C83.3101 125.293 83.0367 125.607 82.8501 126.02C82.6767 126.433 82.5901 126.933 82.5901 127.52V132.58H79.5501ZM91.4351 132.8C90.5284 132.8 89.7017 132.7 88.9551 132.5C88.2084 132.3 87.5751 132.02 87.0551 131.66L87.8351 129.66C88.3551 129.98 88.9284 130.233 89.5551 130.42C90.1951 130.607 90.8284 130.7 91.4551 130.7C92.0417 130.7 92.4751 130.607 92.7551 130.42C93.0351 130.233 93.1751 129.98 93.1751 129.66C93.1751 129.393 93.0817 129.187 92.8951 129.04C92.7217 128.893 92.4484 128.787 92.0751 128.72L90.0151 128.34C89.1484 128.167 88.4884 127.847 88.0351 127.38C87.5817 126.913 87.3551 126.307 87.3551 125.56C87.3551 124.907 87.5284 124.333 87.8751 123.84C88.2351 123.333 88.7484 122.94 89.4151 122.66C90.0817 122.38 90.8617 122.24 91.7551 122.24C92.5151 122.24 93.2351 122.333 93.9151 122.52C94.5951 122.707 95.1751 122.993 95.6551 123.38L94.8351 125.32C94.4217 125.013 93.9417 124.767 93.3951 124.58C92.8617 124.393 92.3484 124.3 91.8551 124.3C91.2151 124.3 90.7551 124.407 90.4751 124.62C90.1951 124.82 90.0551 125.08 90.0551 125.4C90.0551 125.64 90.1351 125.84 90.2951 126C90.4684 126.16 90.7284 126.28 91.0751 126.36L93.1551 126.74C94.0484 126.9 94.7284 127.2 95.1951 127.64C95.6617 128.08 95.8951 128.687 95.8951 129.46C95.8951 130.167 95.7084 130.767 95.3351 131.26C94.9617 131.753 94.4351 132.133 93.7551 132.4C93.0884 132.667 92.3151 132.8 91.4351 132.8ZM103.198 125.52C103.198 124.053 103.471 122.78 104.018 121.7C104.578 120.607 105.378 119.76 106.418 119.16C107.458 118.56 108.691 118.26 110.118 118.26C111.544 118.26 112.778 118.56 113.818 119.16C114.858 119.76 115.658 120.607 116.218 121.7C116.791 122.78 117.078 124.047 117.078 125.5C117.078 126.98 116.791 128.267 116.218 129.36C115.658 130.44 114.858 131.287 113.818 131.9C112.778 132.5 111.544 132.8 110.118 132.8C108.691 132.8 107.458 132.5 106.418 131.9C105.391 131.287 104.598 130.433 104.038 129.34C103.478 128.247 103.198 126.973 103.198 125.52ZM106.458 125.52C106.458 126.973 106.758 128.113 107.358 128.94C107.971 129.753 108.891 130.16 110.118 130.16C111.318 130.16 112.231 129.753 112.858 128.94C113.484 128.113 113.798 126.973 113.798 125.52C113.798 124.053 113.484 122.92 112.858 122.12C112.244 121.307 111.331 120.9 110.118 120.9C108.891 120.9 107.971 121.307 107.358 122.12C106.758 122.92 106.458 124.053 106.458 125.52ZM120.076 132.58V124.7H118.156V122.44H120.936L120.076 123.22V121.76C120.076 120.44 120.416 119.447 121.096 118.78C121.79 118.113 122.823 117.78 124.196 117.78C124.503 117.78 124.83 117.8 125.176 117.84C125.536 117.88 125.85 117.96 126.116 118.08V120.4C125.93 120.333 125.716 120.287 125.476 120.26C125.236 120.22 125.003 120.2 124.776 120.2C124.47 120.2 124.183 120.253 123.916 120.36C123.663 120.467 123.456 120.647 123.296 120.9C123.15 121.14 123.076 121.467 123.076 121.88V122.94L122.656 122.44H125.636V124.7H123.096V132.58H120.076ZM35.7759 157.58V143.48H45.5759V145.9H38.7559V149.2H45.0959V151.64H38.7559V155.16H45.5759V157.58H35.7759ZM45.8686 157.58L50.6686 151.68V153.02L46.1286 147.44H49.6886L52.3886 150.98H51.3086L54.0286 147.44H57.5686L53.0486 153.04V151.66L57.8486 157.58H54.2686L51.3086 153.78H52.3886L49.4086 157.58H45.8686ZM58.6814 161.9V150.08C58.6814 149.653 58.6681 149.22 58.6414 148.78C58.6147 148.327 58.5747 147.88 58.5214 147.44H61.4214L61.6614 149.42H61.4414C61.6414 148.753 62.0614 148.227 62.7014 147.84C63.3414 147.44 64.0747 147.24 64.9014 147.24C65.7814 147.24 66.5547 147.453 67.2214 147.88C67.8881 148.293 68.4081 148.893 68.7814 149.68C69.1681 150.467 69.3614 151.407 69.3614 152.5C69.3614 153.607 69.1681 154.553 68.7814 155.34C68.4081 156.127 67.8881 156.733 67.2214 157.16C66.5547 157.587 65.7814 157.8 64.9014 157.8C64.0881 157.8 63.3614 157.607 62.7214 157.22C62.0947 156.833 61.6747 156.32 61.4614 155.68H61.7014V161.9H58.6814ZM63.9814 155.52C64.6881 155.52 65.2547 155.273 65.6814 154.78C66.1081 154.287 66.3214 153.527 66.3214 152.5C66.3214 151.473 66.1081 150.72 65.6814 150.24C65.2547 149.76 64.6881 149.52 63.9814 149.52C63.2881 149.52 62.7214 149.76 62.2814 150.24C61.8547 150.72 61.6414 151.473 61.6414 152.5C61.6414 153.527 61.8547 154.287 62.2814 154.78C62.7214 155.273 63.2881 155.52 63.9814 155.52ZM76.4181 157.8C74.6581 157.8 73.2848 157.327 72.2981 156.38C71.3115 155.433 70.8181 154.147 70.8181 152.52C70.8181 151.467 71.0248 150.547 71.4381 149.76C71.8648 148.973 72.4515 148.36 73.1981 147.92C73.9581 147.467 74.8448 147.24 75.8581 147.24C76.8581 147.24 77.6915 147.453 78.3581 147.88C79.0381 148.307 79.5448 148.907 79.8781 149.68C80.2248 150.44 80.3981 151.327 80.3981 152.34V153.04H73.2981V151.54H78.1981L77.8581 151.82C77.8581 150.98 77.6848 150.347 77.3381 149.92C77.0048 149.48 76.5181 149.26 75.8781 149.26C75.1715 149.26 74.6248 149.52 74.2381 150.04C73.8648 150.56 73.6781 151.307 73.6781 152.28V152.6C73.6781 153.587 73.9181 154.32 74.3981 154.8C74.8915 155.28 75.5981 155.52 76.5181 155.52C77.0648 155.52 77.5781 155.453 78.0581 155.32C78.5515 155.173 79.0181 154.947 79.4581 154.64L80.2981 156.64C79.7915 157.013 79.2048 157.3 78.5381 157.5C77.8848 157.7 77.1781 157.8 76.4181 157.8ZM82.2942 157.58V150.12C82.2942 149.68 82.2809 149.233 82.2542 148.78C82.2409 148.327 82.2076 147.88 82.1542 147.44H85.0542L85.3942 150.4H84.9342C85.0676 149.68 85.2809 149.087 85.5742 148.62C85.8809 148.153 86.2542 147.807 86.6942 147.58C87.1476 147.353 87.6609 147.24 88.2342 147.24C88.4876 147.24 88.6876 147.253 88.8342 147.28C88.9809 147.293 89.1276 147.327 89.2742 147.38L89.2542 150.04C88.9742 149.92 88.7342 149.847 88.5342 149.82C88.3476 149.78 88.1076 149.76 87.8142 149.76C87.2542 149.76 86.7876 149.867 86.4142 150.08C86.0542 150.293 85.7809 150.607 85.5942 151.02C85.4209 151.433 85.3342 151.933 85.3342 152.52V157.58H82.2942ZM90.5369 157.58V147.44H93.5569V157.58H90.5369ZM90.4169 145.78V142.96H93.6569V145.78H90.4169ZM99.9652 157.8C99.0852 157.8 98.3118 157.587 97.6452 157.16C96.9785 156.733 96.4585 156.127 96.0852 155.34C95.7118 154.553 95.5252 153.607 95.5252 152.5C95.5252 151.407 95.7118 150.467 96.0852 149.68C96.4585 148.893 96.9785 148.293 97.6452 147.88C98.3118 147.453 99.0852 147.24 99.9652 147.24C100.778 147.24 101.505 147.44 102.145 147.84C102.798 148.227 103.225 148.753 103.425 149.42H103.205L103.445 147.44H106.345C106.305 147.88 106.265 148.327 106.225 148.78C106.198 149.22 106.185 149.653 106.185 150.08V157.58H103.185L103.165 155.68H103.405C103.192 156.32 102.765 156.833 102.125 157.22C101.485 157.607 100.765 157.8 99.9652 157.8ZM100.885 155.52C101.578 155.52 102.138 155.273 102.565 154.78C102.992 154.287 103.205 153.527 103.205 152.5C103.205 151.473 102.992 150.72 102.565 150.24C102.138 149.76 101.578 149.52 100.885 149.52C100.192 149.52 99.6318 149.76 99.2052 150.24C98.7785 150.72 98.5652 151.473 98.5652 152.5C98.5652 153.527 98.7718 154.287 99.1852 154.78C99.6118 155.273 100.178 155.52 100.885 155.52ZM108.662 157.58V150.08C108.662 149.653 108.649 149.22 108.622 148.78C108.595 148.327 108.555 147.88 108.502 147.44H111.402L111.622 149.32H111.382C111.715 148.653 112.189 148.14 112.802 147.78C113.415 147.42 114.129 147.24 114.942 147.24C116.129 147.24 117.015 147.587 117.602 148.28C118.202 148.96 118.502 150.02 118.502 151.46V157.58H115.482V151.6C115.482 150.867 115.349 150.347 115.082 150.04C114.815 149.733 114.415 149.58 113.882 149.58C113.215 149.58 112.682 149.793 112.282 150.22C111.882 150.633 111.682 151.193 111.682 151.9V157.58H108.662ZM125.808 157.8C124.728 157.8 123.781 157.587 122.968 157.16C122.154 156.733 121.528 156.12 121.088 155.32C120.648 154.52 120.428 153.573 120.428 152.48C120.428 151.373 120.648 150.433 121.088 149.66C121.541 148.873 122.168 148.273 122.968 147.86C123.781 147.447 124.728 147.24 125.808 147.24C126.488 147.24 127.148 147.34 127.788 147.54C128.441 147.74 128.974 148.02 129.388 148.38L128.508 150.46C128.174 150.153 127.788 149.927 127.348 149.78C126.921 149.62 126.508 149.54 126.108 149.54C125.294 149.54 124.661 149.793 124.208 150.3C123.754 150.807 123.528 151.54 123.528 152.5C123.528 153.46 123.754 154.193 124.208 154.7C124.661 155.207 125.294 155.46 126.108 155.46C126.494 155.46 126.901 155.387 127.328 155.24C127.768 155.093 128.161 154.873 128.508 154.58L129.388 156.64C128.961 157 128.421 157.287 127.768 157.5C127.128 157.7 126.474 157.8 125.808 157.8ZM136.008 157.8C134.248 157.8 132.875 157.327 131.888 156.38C130.901 155.433 130.408 154.147 130.408 152.52C130.408 151.467 130.615 150.547 131.028 149.76C131.455 148.973 132.041 148.36 132.788 147.92C133.548 147.467 134.435 147.24 135.448 147.24C136.448 147.24 137.281 147.453 137.948 147.88C138.628 148.307 139.135 148.907 139.468 149.68C139.815 150.44 139.988 151.327 139.988 152.34V153.04H132.888V151.54H137.788L137.448 151.82C137.448 150.98 137.275 150.347 136.928 149.92C136.595 149.48 136.108 149.26 135.468 149.26C134.761 149.26 134.215 149.52 133.828 150.04C133.455 150.56 133.268 151.307 133.268 152.28V152.6C133.268 153.587 133.508 154.32 133.988 154.8C134.481 155.28 135.188 155.52 136.108 155.52C136.655 155.52 137.168 155.453 137.648 155.32C138.141 155.173 138.608 154.947 139.048 154.64L139.888 156.64C139.381 157.013 138.795 157.3 138.128 157.5C137.475 157.7 136.768 157.8 136.008 157.8Z" fill="#DD2590"/>
</g>
</svg>
