<svg width="227" height="27" viewBox="0 0 227 27" fill="none" xmlns="http://www.w3.org/2000/svg">
<path d="M0.52 26V1.325H4.58L17.985 18.37H17.04V1.325H22.115V26H18.055L4.685 8.955H5.595V26H0.52ZM35.6868 26.385C32.6068 26.385 30.2035 25.5567 28.4768 23.9C26.7501 22.2433 25.8868 19.9917 25.8868 17.145C25.8868 15.3017 26.2485 13.6917 26.9718 12.315C27.7185 10.9383 28.7451 9.865 30.0518 9.095C31.3818 8.30167 32.9335 7.905 34.7068 7.905C36.4568 7.905 37.9151 8.27833 39.0818 9.025C40.2718 9.77167 41.1585 10.8217 41.7418 12.175C42.3485 13.505 42.6518 15.0567 42.6518 16.83V18.055H30.2268V15.43H38.8018L38.2068 15.92C38.2068 14.45 37.9035 13.3417 37.2968 12.595C36.7135 11.825 35.8618 11.44 34.7418 11.44C33.5051 11.44 32.5485 11.895 31.8718 12.805C31.2185 13.715 30.8918 15.0217 30.8918 16.725V17.285C30.8918 19.0117 31.3118 20.295 32.1518 21.135C33.0151 21.975 34.2518 22.395 35.8618 22.395C36.8185 22.395 37.7168 22.2783 38.5568 22.045C39.4201 21.7883 40.2368 21.3917 41.0068 20.855L42.4768 24.355C41.5901 25.0083 40.5635 25.51 39.3968 25.86C38.2535 26.21 37.0168 26.385 35.6868 26.385ZM42.9966 26L51.3966 15.675V18.02L43.4516 8.255H49.6816L54.4066 14.45H52.5166L57.2766 8.255H63.4716L55.5616 18.055V15.64L63.9616 26H57.6966L52.5166 19.35H54.4066L49.1916 26H42.9966ZM73.714 26.385C71.404 26.385 69.6657 25.8133 68.499 24.67C67.3324 23.5033 66.749 21.765 66.749 19.455V12.21H63.389V8.255H66.749V3.915L72.034 2.62V8.255H76.584V12.21H72.034V19.175C72.034 20.295 72.2674 21.065 72.734 21.485C73.2007 21.905 73.7957 22.115 74.519 22.115C74.9624 22.115 75.324 22.0917 75.604 22.045C75.9074 21.975 76.2224 21.8817 76.549 21.765V25.86C76.1057 26.0467 75.639 26.175 75.149 26.245C74.659 26.3383 74.1807 26.385 73.714 26.385ZM91.861 26.385C89.0376 26.385 86.6576 25.8717 84.721 24.845C82.8076 23.795 81.361 22.325 80.381 20.435C79.401 18.5217 78.911 16.2933 78.911 13.75C78.911 11.1367 79.436 8.87333 80.486 6.96C81.5593 5.04667 83.0993 3.565 85.106 2.515C87.1126 1.465 89.516 0.939999 92.316 0.939999C94.1126 0.939999 95.6876 1.17333 97.041 1.64C98.4176 2.08333 99.6193 2.725 100.646 3.565L98.896 7.8C98.1493 7.26333 97.4493 6.84333 96.796 6.54C96.1426 6.21333 95.466 5.99166 94.766 5.875C94.066 5.735 93.261 5.665 92.351 5.665C89.7843 5.665 87.8476 6.365 86.541 7.765C85.2576 9.14167 84.616 11.1483 84.616 13.785C84.616 16.3983 85.2226 18.3817 86.436 19.735C87.6493 21.0883 89.551 21.765 92.141 21.765C93.0043 21.765 93.891 21.6833 94.801 21.52C95.711 21.3567 96.6093 21.1117 97.496 20.785L96.516 22.885V16.235H91.091V12.35H101.031V24.46C99.7943 25.0667 98.3593 25.545 96.726 25.895C95.116 26.2217 93.4943 26.385 91.861 26.385ZM114.3 26.385C111.22 26.385 108.817 25.5567 107.09 23.9C105.363 22.2433 104.5 19.9917 104.5 17.145C104.5 15.3017 104.862 13.6917 105.585 12.315C106.332 10.9383 107.358 9.865 108.665 9.095C109.995 8.30167 111.547 7.905 113.32 7.905C115.07 7.905 116.528 8.27833 117.695 9.025C118.885 9.77167 119.772 10.8217 120.355 12.175C120.962 13.505 121.265 15.0567 121.265 16.83V18.055H108.84V15.43H117.415L116.82 15.92C116.82 14.45 116.517 13.3417 115.91 12.595C115.327 11.825 114.475 11.44 113.355 11.44C112.118 11.44 111.162 11.895 110.485 12.805C109.832 13.715 109.505 15.0217 109.505 16.725V17.285C109.505 19.0117 109.925 20.295 110.765 21.135C111.628 21.975 112.865 22.395 114.475 22.395C115.432 22.395 116.33 22.2783 117.17 22.045C118.033 21.7883 118.85 21.3917 119.62 20.855L121.09 24.355C120.203 25.0083 119.177 25.51 118.01 25.86C116.867 26.21 115.63 26.385 114.3 26.385ZM124.618 26V12.875C124.618 12.1283 124.595 11.37 124.548 10.6C124.502 9.80667 124.432 9.025 124.338 8.255H129.413L129.798 11.545H129.378C129.962 10.3783 130.79 9.48 131.863 8.85C132.937 8.22 134.185 7.905 135.608 7.905C137.685 7.905 139.237 8.51167 140.263 9.725C141.313 10.915 141.838 12.77 141.838 15.29V26H136.553V15.535C136.553 14.2517 136.32 13.3417 135.853 12.805C135.387 12.2683 134.687 12 133.753 12C132.587 12 131.653 12.3733 130.953 13.12C130.253 13.8433 129.903 14.8233 129.903 16.06V26H124.618ZM219.073 26.385C217.487 26.385 216.04 26.21 214.733 25.86C213.427 25.51 212.318 25.02 211.408 24.39L212.773 20.89C213.683 21.45 214.687 21.8933 215.783 22.22C216.903 22.5467 218.012 22.71 219.108 22.71C220.135 22.71 220.893 22.5467 221.383 22.22C221.873 21.8933 222.118 21.45 222.118 20.89C222.118 20.4233 221.955 20.0617 221.628 19.805C221.325 19.5483 220.847 19.3617 220.193 19.245L216.588 18.58C215.072 18.2767 213.917 17.7167 213.123 16.9C212.33 16.0833 211.933 15.0217 211.933 13.715C211.933 12.5717 212.237 11.5683 212.843 10.705C213.473 9.81833 214.372 9.13 215.538 8.64C216.705 8.15 218.07 7.905 219.633 7.905C220.963 7.905 222.223 8.06833 223.413 8.395C224.603 8.72167 225.618 9.22333 226.458 9.9L225.023 13.295C224.3 12.7583 223.46 12.3267 222.503 12C221.57 11.6733 220.672 11.51 219.808 11.51C218.688 11.51 217.883 11.6967 217.393 12.07C216.903 12.42 216.658 12.875 216.658 13.435C216.658 13.855 216.798 14.205 217.078 14.485C217.382 14.765 217.837 14.975 218.443 15.115L222.083 15.78C223.647 16.06 224.837 16.585 225.653 17.355C226.47 18.125 226.878 19.1867 226.878 20.54C226.878 21.7767 226.552 22.8267 225.898 23.69C225.245 24.5533 224.323 25.2183 223.133 25.685C221.967 26.1517 220.613 26.385 219.073 26.385Z" fill="white"/>
<path d="M146.433 26V1.325H150.493L163.898 18.37H162.953V1.325H168.028V26H163.968L150.598 8.955H151.508V26H146.433ZM173.025 26V1.325H189.79V5.56H178.485V11.58H188.985V15.78H178.485V26H173.025ZM199.374 26V5.77H191.534V1.325H212.674V5.77H204.834V26H199.374Z" fill="#DD2590"/>
</svg>
